<?xml version="1.0" standalone="no"?>
<!DOCTYPE svg PUBLIC "-//W3C//DTD SVG 20010904//EN"
 "http://www.w3.org/TR/2001/REC-SVG-20010904/DTD/svg10.dtd">
<svg version="1.0" xmlns="http://www.w3.org/2000/svg"
 width="260.000000pt" height="260.000000pt" viewBox="0 0 260.000000 260.000000"
 preserveAspectRatio="xMidYMid meet">
<metadata>
Created by potrace 1.11, written by Peter Selinger 2001-2013
</metadata>
<g transform="translate(0.000000,260.000000) scale(0.100000,-0.100000)"
fill="#000000" stroke="none">
<path d="M0 1300 l0 -1300 1300 0 1300 0 0 1300 0 1300 -1300 0 -1300 0 0
-1300z m1038 1068 c9 -9 12 -205 12 -817 0 -761 1 -808 19 -846 22 -48 44 -69
94 -90 30 -13 95 -15 400 -15 269 0 366 -3 375 -12 18 -18 16 -268 -1 -293
-20 -26 -130 -42 -405 -56 -506 -28 -720 39 -830 256 -57 115 -56 87 -59 1009
-3 633 -1 852 8 862 15 19 368 21 387 2z"/>
</g>
</svg>
